<?xml version="1.0" standalone="no"?>
<!DOCTYPE svg PUBLIC "-//W3C//DTD SVG 20010904//EN"
 "http://www.w3.org/TR/2001/REC-SVG-20010904/DTD/svg10.dtd">
<svg version="1.0" xmlns="http://www.w3.org/2000/svg"
 width="2874.000000pt" height="388.000000pt" viewBox="0 0 2874.000000 388.000000"
 preserveAspectRatio="xMidYMid meet">
<metadata>
Created by potrace 1.11, written by Peter Selinger 2001-2013
</metadata>
<g transform="translate(0.000000,388.000000) scale(0.100000,-0.100000)"
fill="#000000" stroke="none">
<path d="M12 1949 l3 -1920 13130 0 c7222 1 13678 1 14348 1 l1217 0 0 1920 0
1920 -14350 0 -14350 0 2 -1921z m530 1501 c229 -228 388 -395 386 -404 -2 -9
-162 144 -407 390 -242 241 -397 404 -387 404 10 0 188 -170 408 -390z m35 35
c208 -207 353 -360 351 -369 -2 -9 -147 129 -372 355 -221 221 -362 369 -352
369 10 0 174 -155 373 -355z m35 35 c187 -187 318 -325 316 -334 -2 -9 -133
115 -337 320 -201 200 -327 334 -317 334 10 0 159 -141 338 -320z m35 35 c166
-166 283 -290 281 -299 -2 -9 -119 101 -302 285 -180 180 -292 299 -282 299
10 0 145 -126 303 -285z m35 35 c145 -145 248 -255 246 -264 -2 -9 -105 87
-267 249 -160 160 -257 265 -247 265 10 0 130 -112 268 -250z m35 35 c125
-124 213 -220 211 -229 -2 -9 -90 73 -232 214 -139 140 -222 230 -212 230 10
0 115 -97 233 -215z m35 35 c104 -103 178 -185 176 -194 -2 -9 -76 58 -197
179 -119 119 -187 195 -177 195 10 0 99 -81 198 -180z m35 35 c83 -83 143
-151 141 -159 -2 -10 -62 44 -162 144 -98 99 -152 160 -142 160 10 0 83 -65
163 -145z m35 35 c62 -62 108 -116 106 -124 -2 -10 -48 30 -127 109 -77 78
-117 125 -107 125 10 0 67 -49 128 -110z m35 36 c41 -42 73 -82 71 -90 -2 -10
-33 15 -92 74 -57 58 -83 90 -72 90 10 0 52 -34 93 -74z m35 35 c22 -22 38
-47 36 -55 -2 -11 -19 1 -57 39 -63 64 -44 79 21 16z m38 19 c0 -11 -1 -20 -3
-20 -1 0 -10 9 -20 20 -16 19 -16 20 3 20 13 0 20 -7 20 -20z m670 -275 l0
-295 -300 0 -300 0 0 295 0 295 300 0 300 0 0 -295z m660 55 c0 -215 -2 -240
-16 -240 -32 0 -83 -41 -96 -76 l-12 -34 -248 0 -248 0 0 295 0 295 310 0 310
0 0 -240z m1350 0 l0 -239 -29 -15 c-41 -22 -61 -58 -61 -112 0 -41 5 -51 36
-80 29 -28 43 -34 80 -34 52 0 89 21 110 62 l15 28 612 0 c337 -1 764 -1 950
0 l337 0 0 315 0 315 185 0 185 0 0 -635 0 -635 310 0 309 0 16 -30 c41 -79
169 -79 210 0 l16 30 259 0 260 0 0 635 0 635 195 0 196 0 -2 -316 -1 -315
956 0 956 1 14 -29 c22 -41 58 -61 113 -61 39 0 52 5 80 32 29 28 33 38 33 84
0 55 -23 97 -60 109 -19 6 -20 16 -20 251 l0 244 635 0 635 0 0 -239 0 -238
-35 -24 c-46 -31 -63 -83 -46 -138 16 -54 55 -81 117 -81 44 0 51 4 90 45 l42
45 603 0 c332 -1 756 -1 942 0 l337 0 0 315 0 315 190 0 190 0 0 -635 0 -635
308 0 307 0 10 -22 c6 -12 26 -33 45 -46 47 -32 109 -26 151 14 16 15 29 34
29 41 0 10 53 13 265 13 l265 0 0 635 0 635 185 0 185 0 2 -316 3 -315 962 0
c945 1 962 1 968 -19 12 -38 63 -70 111 -70 75 0 124 49 124 126 0 29 -8 44
-40 76 l-40 40 0 239 0 239 630 0 630 0 0 -243 0 -244 -25 -11 c-14 -6 -34
-26 -45 -44 -51 -85 6 -178 111 -178 37 0 51 5 77 31 18 17 32 38 32 45 0 12
97 14 613 14 336 -1 764 -1 950 0 l337 0 0 315 0 315 190 0 190 0 0 -635 0
-635 310 0 310 0 10 -24 c12 -31 69 -66 111 -66 38 0 93 34 108 67 l11 23 260
0 260 0 0 635 0 635 190 0 190 0 0 -317 0 -318 982 2 c948 3 982 2 1002 -16
12 -10 31 -24 43 -30 71 -37 173 27 173 108 0 60 -36 103 -102 125 -16 5 -18
25 -18 226 l0 220 635 0 635 0 0 -229 c0 -195 -2 -230 -16 -242 -52 -43 -56
-130 -8 -180 47 -49 116 -51 172 -4 l29 24 577 1 576 0 0 -320 0 -320 545 0
545 0 0 -615 0 -615 -330 0 -330 0 0 -620 0 -620 -190 0 -190 0 0 300 0 300
-613 0 -613 0 -13 35 c-17 49 -58 75 -119 75 -45 0 -53 -4 -81 -35 -53 -61
-39 -155 30 -191 l29 -15 0 -234 0 -235 -635 0 -635 0 0 238 0 239 26 13 c48
26 69 106 43 163 -27 59 -133 77 -187 32 -16 -13 -32 -38 -35 -55 l-6 -30
-961 0 -960 0 0 -300 0 -300 -190 0 -190 0 0 614 0 614 -22 6 c-13 3 -141 6
-285 6 -210 0 -263 3 -263 13 0 20 -56 58 -94 64 -39 6 -89 -17 -112 -52 l-16
-25 -292 -2 -291 -3 -3 -617 -2 -618 -190 0 -190 0 0 300 0 300 -928 0 -929 0
-11 38 c-14 47 -54 72 -117 72 -40 0 -52 -5 -81 -34 -28 -28 -34 -42 -34 -75
0 -43 23 -101 40 -101 6 0 10 -94 10 -250 l0 -250 -630 0 -630 0 0 220 c0 211
1 220 21 230 29 16 59 70 59 108 0 70 -52 122 -122 122 -38 0 -92 -30 -108
-59 -11 -21 -13 -21 -970 -21 l-960 0 0 -300 0 -300 -190 0 -190 0 0 614 0
614 -31 6 c-17 3 -143 6 -278 6 l-247 0 -28 29 c-37 39 -78 55 -118 47 -33 -6
-88 -48 -88 -66 0 -6 -113 -10 -295 -10 l-295 0 0 -620 0 -620 -190 0 -190 0
0 300 0 300 -928 0 -928 0 -13 35 c-17 49 -58 75 -118 75 -56 -1 -86 -21 -108
-75 -18 -43 -7 -101 25 -130 19 -17 20 -31 20 -262 l0 -243 -635 0 -635 0 0
234 0 234 32 7 c58 13 103 93 84 153 -25 84 -132 111 -201 51 -22 -19 -35 -40
-35 -55 l0 -24 -975 0 -975 0 0 -300 0 -300 -195 0 -195 0 0 614 0 614 -22 6
c-13 3 -138 6 -279 6 l-257 0 -17 26 c-22 34 -79 57 -122 49 -19 -3 -47 -21
-66 -40 l-34 -35 -289 -2 -289 -3 -3 -617 -2 -618 -185 0 -185 0 0 300 0 300
-932 2 -933 3 -3 22 c-2 13 -17 36 -33 53 -26 26 -38 30 -84 30 -44 0 -58 -5
-83 -28 -52 -49 -52 -131 -1 -178 18 -16 19 -34 19 -261 l0 -243 -635 0 -635
0 0 240 c0 153 4 240 10 240 18 0 51 41 64 78 28 80 -28 152 -116 152 -45 0
-54 -4 -84 -36 -19 -19 -34 -44 -34 -55 0 -19 -14 -19 -590 -19 l-590 0 0
1255 0 1255 570 0 571 -1 11 -25 c17 -36 68 -64 120 -64 82 0 137 86 104 163
-8 19 -19 38 -25 41 -8 5 -11 87 -11 262 l0 254 635 0 635 0 0 -240z m670 -55
l0 -295 -260 0 c-231 0 -260 2 -260 16 0 23 -37 72 -60 79 -19 6 -20 16 -20
251 l0 244 300 0 300 0 0 -295z m660 0 l0 -295 -310 0 -310 0 0 295 0 295 310
0 310 0 0 -295z m670 0 l0 -295 -310 0 -310 0 0 295 0 295 310 0 310 0 0 -295z
m1090 0 l0 -295 -310 0 -310 0 0 295 0 295 310 0 310 0 0 -295z m670 0 l0
-295 -295 0 -295 0 0 295 0 295 295 0 295 0 0 -295z m1090 0 l0 -295 -310 0
-310 0 0 295 0 295 310 0 310 0 0 -295z m670 0 l0 -295 -310 0 -310 0 0 295 0
295 310 0 310 0 0 -295z m670 56 l0 -239 -34 -20 c-21 -13 -39 -34 -47 -56
l-13 -36 -263 0 -263 0 0 295 0 295 310 0 310 0 0 -239z m2010 -56 l0 -295
-254 0 -254 0 -12 31 c-7 16 -28 42 -46 56 l-34 25 0 239 0 239 300 0 300 0 0
-295z m660 0 l0 -295 -305 0 -305 0 0 295 0 295 305 0 305 0 0 -295z m680 0
l0 -295 -315 0 -315 0 0 295 0 295 315 0 315 0 0 -295z m1090 0 l0 -295 -315
0 -315 0 0 295 0 295 315 0 315 0 0 -295z m660 0 l0 -295 -295 0 -295 0 0 295
0 295 295 0 295 0 0 -295z m1090 0 l0 -295 -310 0 -310 0 0 295 0 295 310 0
310 0 0 -295z m680 0 l0 -295 -315 0 -315 0 0 295 0 295 315 0 315 0 0 -295z
m660 57 l0 -239 -39 -31 c-22 -18 -41 -42 -43 -54 l-3 -23 -267 -3 -268 -2 0
295 0 295 310 0 310 0 0 -238z m2010 -57 l0 -295 -257 2 -258 3 -3 22 c-2 13
-21 38 -43 56 l-39 34 0 236 0 237 300 0 300 0 0 -295z m670 0 l0 -295 -310 0
-310 0 0 295 0 295 310 0 310 0 0 -295z m670 0 l0 -295 -315 0 -315 0 0 295 0
295 315 0 315 0 0 -295z m1090 0 l0 -295 -310 0 -310 0 0 295 0 295 310 0 310
0 0 -295z m670 0 l0 -295 -295 0 -295 0 0 295 0 295 295 0 295 0 0 -295z
m1090 0 l0 -295 -310 0 -310 0 0 295 0 295 310 0 310 0 0 -295z m670 0 l0
-295 -310 0 -310 0 0 295 0 295 310 0 310 0 0 -295z m660 64 c0 -216 -1 -232
-20 -256 -11 -14 -23 -43 -26 -65 l-7 -38 -283 0 -284 0 0 295 0 295 310 0
310 0 0 -231z m2020 -64 l0 -295 -239 0 -238 0 -7 38 c-8 44 -45 89 -86 103
l-30 11 0 219 0 219 300 0 300 0 0 -295z m660 0 l0 -295 -310 0 -310 0 0 295
0 295 310 0 310 0 0 -295z m606 -189 c266 -266 484 -489 484 -495 0 -6 -3 -11
-7 -11 -18 1 -995 990 -979 990 11 0 227 -209 502 -484z m35 35 c247 -247 449
-454 449 -460 0 -6 -3 -11 -7 -11 -18 1 -925 920 -909 920 11 0 212 -194 467
-449z m35 35 c228 -228 414 -419 414 -425 0 -6 -3 -11 -7 -11 -18 1 -855 850
-839 850 10 0 198 -180 432 -414z m35 35 c208 -208 379 -384 379 -390 0 -6 -3
-11 -7 -11 -18 1 -785 780 -769 780 10 0 184 -165 397 -379z m35 35 c309 -309
362 -366 337 -366 -18 1 -715 710 -699 710 10 0 169 -151 362 -344z m35 35
c278 -278 327 -331 302 -331 -18 1 -645 640 -628 640 9 0 154 -136 326 -309z
m35 35 c246 -246 291 -296 267 -296 -18 1 -575 570 -558 570 9 0 139 -122 291
-274z m35 35 c215 -215 256 -261 232 -261 -18 0 -505 500 -488 500 9 0 125
-107 256 -239z m35 35 c184 -184 221 -226 197 -226 -5 0 -104 97 -222 215
-130 131 -207 215 -196 215 9 0 109 -92 221 -204z m35 35 c152 -152 185 -191
162 -191 -5 0 -89 81 -187 180 -110 111 -172 180 -161 180 9 0 93 -76 186
-169z m35 35 c121 -121 149 -156 127 -156 -5 0 -73 65 -152 145 -89 90 -137
145 -126 145 9 0 78 -60 151 -134z m35 35 c90 -90 113 -121 92 -121 -5 0 -57
50 -117 110 -69 70 -102 110 -91 110 10 0 62 -45 116 -99z m35 35 c59 -60 76
-86 56 -86 -4 0 -40 34 -81 75 -48 49 -67 75 -56 75 10 0 46 -29 81 -64z m35
34 c29 -29 37 -50 21 -50 -5 0 -25 18 -46 40 -27 29 -32 40 -20 40 9 0 30 -13
45 -30z m-27671 -836 c0 -10 -166 149 -420 402 -246 246 -420 427 -420 437 0
12 160 -141 420 -401 240 -240 420 -427 420 -438z m27700 -183 c0 -6 -3 -11
-7 -11 -17 1 -1003 998 -1003 1014 0 11 203 -185 505 -487 278 -278 505 -510
505 -516z m-27700 113 c0 -10 -166 149 -420 402 -246 246 -420 427 -420 437 0
12 160 -141 420 -401 240 -240 420 -427 420 -438z m27700 -183 c0 -6 -3 -11
-7 -11 -17 1 -1003 998 -1003 1014 0 11 203 -185 505 -487 278 -278 505 -510
505 -516z m-27700 113 c0 -10 -166 149 -420 402 -246 246 -420 427 -420 437 0
12 160 -141 420 -401 240 -240 420 -427 420 -438z m27700 -183 c0 -6 -3 -11
-7 -11 -17 1 -1003 998 -1003 1014 0 11 203 -185 505 -487 278 -278 505 -510
505 -516z m-27700 113 c0 -10 -166 149 -420 402 -246 246 -420 427 -420 437 0
12 160 -141 420 -401 240 -240 420 -427 420 -438z m27633 -122 c-20 -5 -942
917 -943 942 0 11 182 -164 479 -460 292 -292 473 -480 464 -482z m-27633 52
c0 -10 -166 149 -420 402 -246 246 -420 427 -420 437 0 12 160 -141 420 -401
240 -240 420 -427 420 -438z m27563 -52 c-20 -5 -872 847 -873 872 0 11 169
-150 444 -425 271 -271 438 -445 429 -447z m-27563 -18 c0 -10 -166 149 -420
402 -246 246 -420 427 -420 437 0 12 160 -141 420 -401 240 -240 420 -427 420
-438z m27493 18 c-20 -5 -802 777 -803 802 0 11 155 -137 409 -390 250 -250
403 -410 394 -412z m-27493 -88 c0 -10 -166 149 -420 402 -246 246 -420 427
-420 437 0 12 160 -141 420 -401 240 -240 420 -427 420 -438z m27423 88 c-20
-5 -732 707 -733 732 0 11 141 -123 374 -355 229 -230 368 -375 359 -377z
m-27423 -158 c0 -10 -166 149 -420 402 -246 246 -420 427 -420 437 0 12 160
-141 420 -401 240 -240 420 -427 420 -438z m27353 158 c-20 -5 -662 637 -663
662 0 11 127 -109 339 -320 208 -209 333 -340 324 -342z m-27353 -228 c0 -10
-166 149 -420 402 -246 246 -420 427 -420 437 0 12 160 -141 420 -401 240
-240 420 -427 420 -438z m27283 228 c-20 -5 -592 567 -593 592 0 11 113 -95
304 -285 188 -188 298 -305 289 -307z m-27283 -298 c0 -10 -166 149 -420 402
-246 246 -420 427 -420 437 0 12 160 -141 420 -401 240 -240 420 -427 420
-438z m5770 610 l0 -245 -25 -33 c-14 -18 -25 -40 -25 -49 0 -15 -26 -17 -285
-17 l-285 0 0 295 0 295 310 0 310 0 0 -246z m670 -49 l0 -295 -240 0 -240 0
0 23 c0 26 -53 81 -87 92 l-23 6 0 235 0 234 295 0 295 0 0 -295z m6870 46 c0
-204 -3 -250 -14 -254 -8 -3 -22 -24 -32 -46 l-18 -41 -283 0 -283 0 0 295 0
295 315 0 315 0 0 -249z m660 -46 l0 -295 -232 0 -233 1 -20 42 c-15 30 -31
47 -62 62 l-43 20 0 232 0 233 295 0 295 0 0 -295z m6870 45 c0 -225 -2 -250
-17 -259 -10 -5 -22 -24 -29 -43 l-11 -33 -281 -3 -282 -2 0 295 0 295 310 0
310 0 0 -250z m670 -45 l0 -295 -235 0 -235 0 -11 28 c-14 36 -44 68 -80 82
l-29 12 0 234 0 234 295 0 295 0 0 -295z m5703 -263 c-20 -5 -522 497 -523
522 0 11 100 -81 269 -250 167 -167 263 -270 254 -272z m-27213 -368 c0 -10
-166 149 -420 402 -246 246 -420 427 -420 437 0 12 160 -141 420 -401 240
-240 420 -427 420 -438z m27143 368 c-20 -5 -452 427 -453 452 0 11 86 -68
234 -215 146 -146 228 -235 219 -237z m-27143 -438 c0 -10 -166 149 -420 402
-246 246 -420 427 -420 437 0 12 160 -141 420 -401 240 -240 420 -427 420
-438z m27073 438 c-20 -5 -382 357 -383 382 0 11 72 -54 199 -180 125 -125
193 -200 184 -202z m-27073 -508 c0 -10 -166 149 -420 402 -246 246 -420 427
-420 437 0 12 160 -141 420 -401 240 -240 420 -427 420 -438z m27003 508 c-20
-5 -312 287 -313 312 0 11 58 -40 164 -145 104 -105 158 -165 149 -167z
m-27003 -578 c0 -10 -166 149 -420 402 -246 246 -420 427 -420 437 0 12 160
-141 420 -401 240 -240 420 -427 420 -438z m26933 578 c-20 -5 -242 217 -243
241 0 13 44 -25 129 -110 84 -83 124 -129 114 -131z m-26933 -648 c0 -10 -166
149 -420 402 -246 246 -420 427 -420 437 0 12 160 -141 420 -401 240 -240 420
-427 420 -438z m26863 648 c-20 -5 -172 147 -173 171 0 13 31 -12 94 -75 63
-62 89 -94 79 -96z m-26863 -718 c0 -10 -166 149 -420 402 -246 246 -420 427
-420 437 0 12 160 -141 420 -401 240 -240 420 -427 420 -438z m26793 718 c-20
-5 -102 77 -103 101 0 13 17 2 59 -40 42 -41 55 -59 44 -61z m-26793 -788 c0
-10 -166 149 -420 402 -246 246 -420 427 -420 437 0 12 160 -141 420 -401 240
-240 420 -427 420 -438z m26730 788 c-20 -7 -40 7 -40 28 0 19 1 19 26 -2 14
-13 20 -24 14 -26z m-26730 -858 c0 -10 -166 149 -420 402 -246 246 -420 427
-420 437 0 12 160 -141 420 -401 240 -240 420 -427 420 -438z m0 -70 c0 -10
-166 149 -420 402 -246 246 -420 427 -420 437 0 12 160 -141 420 -401 240
-240 420 -427 420 -438z m0 -70 c0 -10 -166 149 -420 402 -246 246 -420 427
-420 437 0 12 160 -141 420 -401 240 -240 420 -427 420 -438z m0 -70 c0 -10
-166 149 -420 402 -246 246 -420 427 -420 437 0 12 160 -141 420 -401 240
-240 420 -427 420 -438z m0 -70 c0 -10 -166 149 -420 402 -246 246 -420 427
-420 437 0 12 160 -141 420 -401 240 -240 420 -427 420 -438z m0 -70 c0 -10
-166 149 -420 402 -246 246 -420 427 -420 437 0 12 160 -141 420 -401 240
-240 420 -427 420 -438z m0 -70 c0 -10 -166 149 -420 402 -246 246 -420 427
-420 437 0 12 160 -141 420 -401 240 -240 420 -427 420 -438z m0 -70 c0 -10
-166 149 -420 402 -246 246 -420 427 -420 437 0 12 160 -141 420 -401 240
-240 420 -427 420 -438z m0 -70 c0 -10 -166 149 -420 402 -246 246 -420 427
-420 437 0 12 160 -141 420 -401 240 -240 420 -427 420 -438z m0 -70 c0 -10
-166 149 -420 402 -246 246 -420 427 -420 437 0 12 160 -141 420 -401 240
-240 420 -427 420 -438z m0 -70 c0 -10 -166 149 -420 402 -246 246 -420 427
-420 437 0 12 160 -141 420 -401 240 -240 420 -427 420 -438z m0 -70 c0 -10
-166 149 -420 402 -246 246 -420 427 -420 437 0 12 160 -141 420 -401 240
-240 420 -427 420 -438z m0 -70 c0 -10 -166 149 -420 402 -246 246 -420 427
-420 437 0 12 160 -141 420 -401 240 -240 420 -427 420 -438z m0 -70 c0 -10
-166 149 -420 402 -246 246 -420 427 -420 437 0 12 160 -141 420 -401 240
-240 420 -427 420 -438z m0 -70 c0 -10 -166 149 -420 402 -246 246 -420 427
-420 437 0 12 160 -141 420 -401 240 -240 420 -427 420 -438z m0 -70 c0 -10
-166 149 -420 402 -246 246 -420 427 -420 437 0 12 160 -141 420 -401 240
-240 420 -427 420 -438z m0 -70 c0 -10 -166 149 -420 402 -246 246 -420 427
-420 437 0 12 160 -141 420 -401 240 -240 420 -427 420 -438z m0 -70 c0 -10
-166 149 -420 402 -246 246 -420 427 -420 437 0 12 160 -141 420 -401 240
-240 420 -427 420 -438z m0 -70 c0 -10 -166 149 -420 402 -246 246 -420 427
-420 437 0 12 160 -141 420 -401 240 -240 420 -427 420 -438z m0 -70 c0 -10
-166 149 -420 402 -246 246 -420 427 -420 437 0 12 160 -141 420 -401 240
-240 420 -427 420 -438z m5683 817 c7 -33 53 -91 73 -91 12 0 14 -40 14 -240
l0 -240 -310 0 -310 0 0 300 0 300 264 0 264 0 5 -29z m757 -271 l0 -300 -295
0 -295 0 0 234 0 234 35 35 c19 19 38 49 41 66 l7 31 253 0 254 0 0 -300z
m6780 262 c10 -39 40 -74 73 -85 15 -6 17 -27 17 -242 l0 -235 -315 0 -315 0
0 300 0 300 265 0 264 0 11 -38z m750 -262 l0 -300 -295 0 -295 0 0 240 c0
140 4 240 9 240 19 0 71 62 71 84 0 13 3 26 7 29 3 4 118 7 255 7 l248 0 0
-300z m6776 283 c19 -57 30 -75 60 -94 l34 -21 0 -234 0 -234 -310 0 -310 0 0
300 0 300 260 0 c239 0 261 -1 266 -17z m764 -283 l0 -300 -295 0 -295 0 0
236 0 235 30 25 c17 14 34 43 40 65 l11 39 254 0 255 0 0 -300z m6190 0 l0
-300 -310 0 -310 0 0 300 0 300 310 0 310 0 0 -300z m-27700 -616 c0 -10 -166
149 -420 402 -246 246 -420 427 -420 437 0 12 160 -141 420 -401 240 -240 420
-427 420 -438z m0 -70 c0 -10 -166 149 -420 402 -246 246 -420 427 -420 437 0
12 160 -141 420 -401 240 -240 420 -427 420 -438z m0 -70 c0 -10 -166 149
-420 402 -246 246 -420 427 -420 437 0 12 160 -141 420 -401 240 -240 420
-427 420 -438z m0 -70 c0 -10 -166 149 -420 402 -246 246 -420 427 -420 437 0
12 160 -141 420 -401 240 -240 420 -427 420 -438z m0 -63 c0 -6 -3 -11 -7 -11
-16 0 -833 827 -833 843 0 12 160 -141 420 -401 231 -231 420 -425 420 -431z
m-60 -5 c0 -3 -5 -6 -12 -6 -19 0 -768 753 -768 773 0 12 148 -129 390 -371
214 -214 390 -392 390 -396z m-70 0 c0 -3 -5 -6 -12 -6 -19 0 -698 683 -698
703 0 12 135 -116 355 -336 195 -195 355 -357 355 -361z m-70 0 c0 -3 -5 -6
-12 -6 -19 0 -628 613 -628 633 0 12 121 -102 320 -301 176 -176 320 -322 320
-326z m-70 0 c0 -24 -55 26 -296 267 -158 156 -274 280 -274 290 0 12 107 -88
285 -266 157 -156 285 -287 285 -291z m940 274 l0 -280 -300 0 -300 0 0 280 0
280 300 0 300 0 0 -280z m580 272 c0 -13 53 -68 73 -75 15 -6 17 -27 17 -242
l0 -235 -315 0 -315 0 0 280 0 280 270 0 c149 0 270 -4 270 -8z m2100 -272 l0
-280 -300 0 -300 0 0 234 0 234 30 7 c28 6 80 55 80 76 0 5 102 9 245 9 l245
0 0 -280z m660 0 l0 -280 -310 0 -310 0 0 280 0 280 310 0 310 0 0 -280z m670
0 l0 -280 -310 0 -310 0 0 280 0 280 310 0 310 0 0 -280z m1090 0 l0 -280
-310 0 -310 0 0 280 0 280 310 0 310 0 0 -280z m670 0 l0 -280 -295 0 -295 0
0 280 0 280 295 0 295 0 0 -280z m1090 0 l0 -280 -310 0 -310 0 0 280 0 280
310 0 310 0 0 -280z m670 0 l0 -280 -310 0 -310 0 0 280 0 280 310 0 310 0 0
-280z m633 250 c10 -16 22 -30 28 -30 5 0 9 -100 9 -250 l0 -250 -310 0 -310
0 0 280 0 280 283 0 283 0 17 -30z m2037 -250 l0 -280 -290 0 -290 0 0 233 1
232 39 18 c22 10 48 32 57 48 l17 29 233 0 233 0 0 -280z m680 0 l0 -280 -315
0 -315 0 0 280 0 280 315 0 315 0 0 -280z m670 0 l0 -280 -312 0 -313 0 3 280
3 280 309 0 310 0 0 -280z m1090 0 l0 -280 -315 0 -315 0 0 280 0 280 315 0
315 0 0 -280z m660 0 l0 -280 -295 0 -295 0 0 280 0 280 295 0 295 0 0 -280z
m1090 0 l0 -280 -310 0 -310 0 0 280 0 280 310 0 310 0 0 -280z m670 0 l0
-280 -310 0 -310 0 0 280 0 280 310 0 310 0 0 -280z m589 245 c9 -35 55 -84
79 -85 9 0 12 -51 12 -220 l0 -220 -315 0 -315 0 0 280 0 280 265 0 264 0 10
-35z m2091 -245 l0 -280 -300 0 -300 0 0 234 0 234 29 5 c36 8 70 34 82 65 8
22 9 22 249 22 l240 0 0 -280z m670 0 l0 -280 -310 0 -310 0 0 280 0 280 310
0 310 0 0 -280z m670 0 l0 -280 -315 0 -315 0 0 280 0 280 315 0 315 0 0 -280z
m1090 0 l0 -280 -312 0 -313 0 3 280 3 280 309 0 310 0 0 -280z m670 0 l0
-280 -295 0 -295 0 0 280 0 280 295 0 295 0 0 -280z m1090 0 l0 -280 -310 0
-310 0 0 280 0 280 310 0 310 0 0 -280z m670 0 l0 -280 -310 0 -310 0 0 280 0
280 310 0 310 0 0 -280z m590 264 c0 -18 44 -64 61 -64 5 0 9 -95 9 -240 l0
-240 -310 0 -310 0 0 280 0 280 275 0 c248 0 275 -2 275 -16z m2080 -264 l0
-280 -295 0 -295 0 0 239 c0 229 1 239 20 244 11 3 29 21 41 41 l21 36 254 0
254 0 0 -280z m670 0 l0 -280 -310 0 -310 0 0 280 0 280 310 0 310 0 0 -280z
m1090 0 l0 -280 -310 0 -310 0 0 280 0 280 310 0 310 0 0 -280z m-28040 -274
c0 -23 -51 21 -261 232 -137 135 -239 245 -239 255 0 12 93 -74 250 -231 138
-137 250 -252 250 -256z m-70 0 c0 -23 -47 17 -226 197 -116 114 -204 210
-204 220 0 12 79 -61 215 -196 118 -118 215 -217 215 -221z m-70 0 c0 -22 -42
13 -191 162 -94 93 -169 175 -169 185 0 12 66 -47 180 -161 99 -98 180 -182
180 -186z m-70 1 c0 -23 -38 8 -156 126 -74 72 -134 140 -134 150 0 12 52 -33
145 -126 80 -79 145 -147 145 -150z m-70 0 c0 -21 -33 4 -121 91 -54 53 -99
105 -99 115 0 12 38 -19 110 -91 61 -60 110 -112 110 -115z m-70 0 c0 -19 -28
-1 -86 56 -35 34 -64 70 -64 80 0 12 24 -5 75 -56 41 -40 75 -76 75 -80z m-70
1 c0 -15 -20 -8 -50 19 -17 14 -30 34 -30 44 0 15 8 11 40 -18 22 -21 40 -41
40 -45z"/>
<path d="M1933 2070 c-53 -22 -78 -111 -48 -170 41 -80 169 -78 211 2 42 81
-13 179 -99 177 -23 0 -52 -4 -64 -9z"/>
<path d="M4602 2064 c-94 -66 -50 -224 63 -224 105 0 155 141 76 212 -36 33
-102 38 -139 12z"/>
<path d="M8792 2064 c-94 -66 -50 -224 63 -224 105 0 155 141 76 212 -36 33
-102 38 -139 12z"/>
<path d="M12143 2070 c-53 -22 -78 -111 -48 -170 41 -80 169 -78 211 2 42 81
-13 179 -99 177 -23 0 -52 -4 -64 -9z"/>
<path d="M16333 2070 c-53 -22 -78 -111 -48 -170 41 -80 169 -78 211 2 42 81
-13 179 -99 177 -23 0 -52 -4 -64 -9z"/>
<path d="M19673 2070 c-53 -22 -78 -111 -48 -170 41 -80 169 -78 211 2 42 81
-13 179 -99 177 -23 0 -52 -4 -64 -9z"/>
<path d="M23863 2070 c-53 -22 -78 -111 -48 -170 41 -80 169 -78 211 2 42 81
-13 179 -99 177 -23 0 -52 -4 -64 -9z"/>
<path d="M26532 2064 c-94 -66 -50 -224 63 -224 105 0 155 141 76 212 -36 33
-102 38 -139 12z"/>
</g>
</svg>
